# xmcd
#
# Track frame offsets:
#	150
#	27959
#	50959
#	77605
#	99531
#	128105
#	155879
#	166759
#	190317
#	215938
#	236543
#	254405
#	271826
#	285549
#	302174
#	317956
#	331250
#
# Disc length: 4764 seconds
#
# Revision: 0
# Processed by: cddbd v1.5.2PL0 Copyright (c) Steve Scherf et al.
# Submitted via: EasyCDDAExtractor 8.2.3.1
#
DISCID=fb129a11
DTITLE=Various Artist - GOOD WHISKEY BLUES  bottle 3   79'24''
DYEAR=2002
DGENRE=Blues
TTITLE0=CHRIS COBB Band - Bad Brain
TTITLE1=DAVID DENNY - Without You
TTITLE2=SONNY KENN Band - Fade to Black
TTITLE3=JOHN BLOYS and The BOOGIE STEW - I'm Free
TTITLE4=NASTY NED and The FAMOUS CHILI DOGS - Just Like Life
TTITLE5=MIKE DUGAN and The BLUES MISSION - Blue Eternity
TTITLE6=DAN HAYES - She Says She Will
TTITLE7=LITTLE JONNY and The GIANTS - Stranger Blues
TTITLE8=BIRD DOGS - Bye Bye Baby
TTITLE9=ROCKY SHELTON - Twist of Fate
TTITLE10=FRED JAMES - Everybody's Gettin' Them Some
TTITLE11=KENNY LEE - Country Boy
TTITLE12=BILLY EARL McLELLAND - Highway Blues
TTITLE13=PARIS SLIM - Molly's Backyard Blues
TTITLE14=JOHNNY CHARLES - You Move Me
TTITLE15=GUITAR PETE - Rainmaker
TTITLE16=JIM SUHLER and MONKEY BEAT - Every Dog Has His Day
EXTD=
EXTT0=
EXTT1=
EXTT2=
EXTT3=
EXTT4=
EXTT5=
EXTT6=
EXTT7=
EXTT8=
EXTT9=
EXTT10=
EXTT11=
EXTT12=
EXTT13=
EXTT14=
EXTT15=
EXTT16=
PLAYORDER=
